<?xml version="1.0" encoding="UTF-8" standalone="no"?>
<svg
   xmlns:dc="http://purl.org/dc/elements/1.1/"
   xmlns:cc="http://creativecommons.org/ns#"
   xmlns:rdf="http://www.w3.org/1999/02/22-rdf-syntax-ns#"
   xmlns:svg="http://www.w3.org/2000/svg"
   xmlns="http://www.w3.org/2000/svg"
   xmlns:sodipodi="http://sodipodi.sourceforge.net/DTD/sodipodi-0.dtd"
   xmlns:inkscape="http://www.inkscape.org/namespaces/inkscape"
   sodipodi:docname="F16_internal_tero.svg"
   inkscape:version="1.0 (4035a4fb49, 2020-05-01)"
   id="svg8"
   version="1.1"
   viewBox="0 0 104.25364 41.319664"
   height="41.319664mm"
   width="104.25364mm">
  <style
     id="style1194"></style>
  <defs
     id="defs2">
    <defs
       id="id-4da69e45-ae21-4ab9-a96e-373d3b5e4dbb">
      <g
         id="id-f320cb31-b74c-4d63-bc6e-6126af24475c">
        <symbol
           overflow="visible"
           id="id-87dd37b5-3f29-49f1-8d34-6d54e94a77bc">
          <path
             style="stroke:none"
             d=""
             id="id-dbe72e51-6d1e-4628-911b-5d7d2e107783" />
        </symbol>
        <symbol
           overflow="visible"
           id="id-332b886e-facd-4837-86fe-1f828cede273">
          <path
             style="stroke:none"
             d="m 0.5625,-3.40625 c 0,2.0625 1.609375,3.625 3.46875,3.625 1.625,0 2.59375,-1.390625 2.59375,-2.546875 C 6.625,-2.421875 6.625,-2.5 6.5,-2.5 6.390625,-2.5 6.390625,-2.4375 6.375,-2.328125 6.296875,-0.90625 5.234375,-0.09375 4.140625,-0.09375 c -0.609375,0 -2.5625,-0.328125 -2.5625,-3.3125 0,-2.96875 1.953125,-3.3125 2.5625,-3.3125 1.078125,0 1.96875,0.90625 2.171875,2.359375 C 6.328125,-4.21875 6.328125,-4.1875 6.46875,-4.1875 6.625,-4.1875 6.625,-4.21875 6.625,-4.421875 V -6.78125 c 0,-0.171875 0,-0.25 -0.109375,-0.25 -0.03125,0 -0.078125,0 -0.15625,0.125 l -0.5,0.734375 C 5.5,-6.53125 4.984375,-7.03125 4.03125,-7.03125 c -1.875,0 -3.46875,1.59375 -3.46875,3.625 z m 0,0"
             id="id-476f307c-7e97-4ff4-95e4-6cf1235f1eb8" />
        </symbol>
        <symbol
           overflow="visible"
           id="id-f0669221-4acc-4717-8c86-011cbacfde09">
          <path
             style="stroke:none"
             d="m 1.71875,-3.984375 h 1.4375 v -0.3125 H 1.71875 V -6.125 h -0.25 c 0,0.8125 -0.296875,1.875 -1.28125,1.921875 v 0.21875 h 0.84375 v 2.75 c 0,1.21875 0.9375,1.34375 1.296875,1.34375 0.703125,0 0.984375,-0.703125 0.984375,-1.34375 v -0.5625 h -0.25 V -1.25 c 0,0.734375 -0.296875,1.109375 -0.671875,1.109375 -0.671875,0 -0.671875,-0.90625 -0.671875,-1.078125 z m 0,0"
             id="id-de09b795-ff83-47e0-b26f-f47c1d0380c3" />
        </symbol>
        <symbol
           overflow="visible"
           id="id-de4d86af-4592-49df-b736-d71888154d3e">
          <path
             style="stroke:none"
             d="M 1.671875,-3.3125 V -4.40625 L 0.28125,-4.296875 v 0.3125 c 0.703125,0 0.78125,0.0625 0.78125,0.5625 V -0.75 c 0,0.4375 -0.109375,0.4375 -0.78125,0.4375 V 0 c 0.390625,-0.015625 0.859375,-0.03125 1.140625,-0.03125 0.390625,0 0.859375,0 1.265625,0.03125 V -0.3125 H 2.46875 c -0.734375,0 -0.75,-0.109375 -0.75,-0.46875 V -2.3125 c 0,-0.984375 0.421875,-1.875 1.171875,-1.875 0.0625,0 0.09375,0 0.109375,0.015625 -0.03125,0 -0.234375,0.125 -0.234375,0.390625 0,0.265625 0.21875,0.421875 0.4375,0.421875 0.171875,0 0.421875,-0.125 0.421875,-0.4375 0,-0.3125 -0.3125,-0.609375 -0.734375,-0.609375 -0.734375,0 -1.09375,0.671875 -1.21875,1.09375 z m 0,0"
             id="id-1ed3232c-c435-4911-8bc3-6db23764a7aa" />
        </symbol>
        <symbol
           overflow="visible"
           id="id-149a8fbc-a23e-4d8b-b33b-79b827ed16b7">
          <path
             style="stroke:none"
             d="M 1.765625,-6.921875 0.328125,-6.8125 V -6.5 c 0.703125,0 0.78125,0.0625 0.78125,0.5625 V -0.75 c 0,0.4375 -0.109375,0.4375 -0.78125,0.4375 V 0 C 0.65625,-0.015625 1.1875,-0.03125 1.4375,-0.03125 c 0.25,0 0.734375,0.015625 1.109375,0.03125 v -0.3125 c -0.671875,0 -0.78125,0 -0.78125,-0.4375 z m 0,0"
             id="id-c0be4747-18ec-4444-a747-d2d7546999d7" />
        </symbol>
        <symbol
           overflow="visible"
           id="id-e903cde9-b981-4db5-a69a-31b4fe767a45">
          <path
             style="stroke:none"
             d="m 3.484375,-3.875 -1.28125,-0.296875 c -0.625,-0.15625 -1,-0.6875 -1,-1.265625 0,-0.703125 0.53125,-1.3125 1.3125,-1.3125 1.65625,0 1.875,1.640625 1.9375,2.078125 0.015625,0.0625 0.015625,0.125 0.125,0.125 0.125,0 0.125,-0.046875 0.125,-0.234375 v -2 c 0,-0.171875 0,-0.25 -0.109375,-0.25 -0.0625,0 -0.078125,0.015625 -0.140625,0.140625 l -0.359375,0.5625 C 3.796875,-6.625 3.390625,-7.03125 2.5,-7.03125 c -1.109375,0 -1.9375,0.875 -1.9375,1.9375 0,0.828125 0.53125,1.5625 1.296875,1.828125 0.109375,0.03125 0.625,0.15625 1.328125,0.328125 0.265625,0.0625 0.5625,0.140625 0.84375,0.5 0.203125,0.265625 0.3125,0.59375 0.3125,0.921875 0,0.703125 -0.5,1.421875 -1.34375,1.421875 -0.28125,0 -1.046875,-0.046875 -1.578125,-0.53125 C 0.84375,-1.171875 0.8125,-1.796875 0.8125,-2.15625 0.796875,-2.265625 0.71875,-2.265625 0.6875,-2.265625 c -0.125,0 -0.125,0.078125 -0.125,0.25 v 2 c 0,0.171875 0,0.234375 0.109375,0.234375 0.0625,0 0.078125,-0.015625 0.140625,-0.125 0,-0.015625 0.03125,-0.046875 0.359375,-0.578125 0.3125,0.34375 0.953125,0.703125 1.84375,0.703125 1.15625,0 1.953125,-0.96875 1.953125,-2.078125 0,-0.984375 -0.65625,-1.8125 -1.484375,-2.015625 z m 0,0"
             id="id-d0ec412e-d322-4714-bbc3-5978309591b1" />
        </symbol>
        <symbol
           overflow="visible"
           id="id-99599783-1a27-4b0a-931c-e42f67deda24">
          <path
             style="stroke:none"
             d="m 3.3125,-0.75 c 0.046875,0.390625 0.3125,0.8125 0.78125,0.8125 0.21875,0 0.828125,-0.140625 0.828125,-0.953125 v -0.5625 h -0.25 v 0.5625 c 0,0.578125 -0.25,0.640625 -0.359375,0.640625 -0.328125,0 -0.375,-0.453125 -0.375,-0.5 v -1.984375 c 0,-0.421875 0,-0.8125 -0.359375,-1.1875 C 3.1875,-4.3125 2.6875,-4.46875 2.21875,-4.46875 c -0.828125,0 -1.515625,0.46875 -1.515625,1.125 0,0.296875 0.203125,0.46875 0.46875,0.46875 0.28125,0 0.453125,-0.203125 0.453125,-0.453125 0,-0.125 -0.046875,-0.453125 -0.515625,-0.453125 C 1.390625,-4.140625 1.875,-4.25 2.1875,-4.25 c 0.5,0 1.0625,0.390625 1.0625,1.28125 v 0.359375 c -0.515625,0.03125 -1.203125,0.0625 -1.828125,0.359375 -0.75,0.34375 -1,0.859375 -1,1.296875 0,0.8125 0.96875,1.0625 1.59375,1.0625 0.65625,0 1.109375,-0.40625 1.296875,-0.859375 z M 3.25,-2.390625 v 1 c 0,0.9375 -0.71875,1.28125 -1.171875,1.28125 -0.484375,0 -0.890625,-0.34375 -0.890625,-0.84375 0,-0.546875 0.421875,-1.375 2.0625,-1.4375 z m 0,0"
             id="id-82d9ca9b-5045-4dab-a1c9-8d7cc8f32024" />
        </symbol>
        <symbol
           overflow="visible"
           id="id-3b83754b-c93b-4b7d-ba38-f05bb712b866">
          <path
             style="stroke:none"
             d="M 1.765625,-4.40625 0.375,-4.296875 v 0.3125 c 0.640625,0 0.734375,0.0625 0.734375,0.546875 V -0.75 c 0,0.4375 -0.109375,0.4375 -0.78125,0.4375 V 0 C 0.640625,-0.015625 1.1875,-0.03125 1.421875,-0.03125 1.78125,-0.03125 2.125,-0.015625 2.46875,0 v -0.3125 c -0.671875,0 -0.703125,-0.046875 -0.703125,-0.4375 z m 0.03125,-1.734375 c 0,-0.3125 -0.234375,-0.53125 -0.515625,-0.53125 -0.3125,0 -0.53125,0.265625 -0.53125,0.53125 0,0.265625 0.21875,0.53125 0.53125,0.53125 0.28125,0 0.515625,-0.21875 0.515625,-0.53125 z m 0,0"
             id="id-b5c12049-3292-47ef-ba14-32d17bf6135a" />
        </symbol>
        <symbol
           overflow="visible"
           id="id-5628244c-de76-4ea7-9607-1e28a3cd90c7">
          <path
             style="stroke:none"
             d="m 3.78125,-0.546875 v 0.65625 L 5.25,0 v -0.3125 c -0.6875,0 -0.78125,-0.0625 -0.78125,-0.5625 V -6.921875 L 3.046875,-6.8125 V -6.5 c 0.6875,0 0.765625,0.0625 0.765625,0.5625 v 2.15625 c -0.28125,-0.359375 -0.71875,-0.625 -1.25,-0.625 -1.171875,0 -2.21875,0.984375 -2.21875,2.265625 0,1.265625 0.96875,2.25 2.109375,2.25 0.640625,0 1.078125,-0.34375 1.328125,-0.65625 z m 0,-2.671875 v 2.046875 c 0,0.171875 0,0.1875 -0.109375,0.359375 C 3.375,-0.328125 2.9375,-0.109375 2.5,-0.109375 2.046875,-0.109375 1.6875,-0.375 1.453125,-0.75 1.203125,-1.15625 1.171875,-1.71875 1.171875,-2.140625 1.171875,-2.5 1.1875,-3.09375 1.46875,-3.546875 1.6875,-3.859375 2.0625,-4.1875 2.609375,-4.1875 c 0.34375,0 0.765625,0.15625 1.0625,0.59375 0.109375,0.171875 0.109375,0.1875 0.109375,0.375 z m 0,0"
             id="id-d6f45a4f-5d88-4b98-8dec-99bb031da3ce" />
        </symbol>
      </g>
    </defs>
  </defs>
  <sodipodi:namedview
     inkscape:window-maximized="1"
     inkscape:window-y="-9"
     inkscape:window-x="-9"
     inkscape:window-height="1001"
     inkscape:window-width="1920"
     inkscape:snap-global="true"
     showgrid="false"
     inkscape:document-rotation="0"
     inkscape:current-layer="layer1"
     inkscape:document-units="mm"
     inkscape:cy="105.50091"
     inkscape:cx="107.87949"
     inkscape:zoom="1.979899"
     inkscape:pageshadow="2"
     inkscape:pageopacity="0.0"
     borderopacity="1.0"
     bordercolor="#666666"
     pagecolor="#ffffff"
     id="base" />
  <metadata
     id="metadata5">
    <rdf:RDF>
      <cc:Work
         rdf:about="">
        <dc:format>image/svg+xml</dc:format>
        <dc:type
           rdf:resource="http://purl.org/dc/dcmitype/StillImage" />
        <dc:title></dc:title>
      </cc:Work>
    </rdf:RDF>
  </metadata>
  <g
     transform="translate(-64.89433,-41.684792)"
     id="layer1"
     inkscape:groupmode="layer"
     inkscape:label="Layer 1">
    <g
       inkscape:label="Layer 1"
       id="g910"
       transform="translate(-134.69317,-143.03888)">
      <path
         id="path904"
         d="m 231.98938,187.69983 h -3.92051 m 3.92051,5.60034 h -3.92051"
         style="fill:none;stroke:#000000;stroke-width:0.140582;stroke-linecap:butt;stroke-linejoin:miter;stroke-miterlimit:10;stroke-opacity:1" />
      <path
         id="path906"
         d="m 231.98938,184.89965 h 8.18417 c 3.0937,0 5.60035,2.50803 5.60035,5.60035 0,3.09232 -2.50665,5.60035 -5.60035,5.60035 h -8.18417 z m 0,0"
         style="fill:none;stroke:#000000;stroke-width:0.281165;stroke-linecap:butt;stroke-linejoin:miter;stroke-miterlimit:10;stroke-opacity:1" />
      <path
         id="path908"
         d="m 245.7739,190.5 h 3.91914"
         style="fill:none;stroke:#000000;stroke-width:0.140582;stroke-linecap:butt;stroke-linejoin:miter;stroke-miterlimit:10;stroke-opacity:1" />
    </g>
    <path
       style="fill:none;stroke:#000000;stroke-width:0.141;stroke-linejoin:round;stroke-miterlimit:10;stroke-dasharray:none"
       d="m 114.99987,47.461133 10.21224,0.06751"
       id="path922" />
    <path
       id="path950"
       d="m 93.375699,74.294319 h -5.874215 v -9.282414 l 61.610126,-9.543899 v -7.93936 h -6.35983"
       style="fill:none;stroke:#000000;stroke-width:0.141;stroke-linejoin:round;stroke-miterlimit:10;stroke-dasharray:none" />
    <g
       transform="translate(-134.69317,-113.40551)"
       id="g962"
       inkscape:label="Layer 1">
      <path
         style="fill:none;stroke:#000000;stroke-width:0.140582;stroke-linecap:butt;stroke-linejoin:miter;stroke-miterlimit:10;stroke-opacity:1"
         d="m 231.98938,187.69983 h -3.92051 m 3.92051,5.60034 h -3.92051"
         id="path956" />
      <path
         style="fill:none;stroke:#000000;stroke-width:0.281165;stroke-linecap:butt;stroke-linejoin:miter;stroke-miterlimit:10;stroke-opacity:1"
         d="m 231.98938,184.89965 h 8.18417 c 3.0937,0 5.60035,2.50803 5.60035,5.60035 0,3.09232 -2.50665,5.60035 -5.60035,5.60035 h -8.18417 z m 0,0"
         id="path958" />
      <path
         style="fill:none;stroke:#000000;stroke-width:0.140582;stroke-linecap:butt;stroke-linejoin:miter;stroke-miterlimit:10;stroke-opacity:1"
         d="m 245.7739,190.5 h 3.91914"
         id="path960" />
    </g>
    <g
       inkscape:label="Layer 1"
       id="g920"
       transform="translate(0.17836947,-52.257768)">
      <path
         id="path912"
         d="m 128.95425,99.786414 h -3.92051"
         style="fill:none;stroke:#000000;stroke-width:0.141;stroke-linecap:butt;stroke-linejoin:miter;stroke-miterlimit:10;stroke-dasharray:none;stroke-opacity:1" />
      <path
         id="path914"
         d="m 128.95425,94.186074 9.69864,5.60034 -9.69864,5.598966 z m 0,0"
         style="fill:none;stroke:#000000;stroke-width:0.281165;stroke-linecap:butt;stroke-linejoin:miter;stroke-miterlimit:10;stroke-opacity:1" />
      <path
         id="path916"
         d="m 140.37819,99.786414 h 2.19522"
         style="fill:none;stroke:#000000;stroke-width:0.140582;stroke-linecap:butt;stroke-linejoin:miter;stroke-miterlimit:10;stroke-opacity:1" />
      <path
         id="path918"
         d="m 140.37819,99.786414 c 0,-0.4768 -0.38585,-0.86265 -0.86265,-0.86265 -0.47542,0 -0.86265,0.38585 -0.86265,0.86265 0,0.475426 0.38723,0.861276 0.86265,0.861276 0.4768,0 0.86265,-0.38585 0.86265,-0.861276 z m 0,0"
         style="fill:#ffffff;fill-opacity:1;fill-rule:nonzero;stroke:#000000;stroke-width:0.281165;stroke-linecap:butt;stroke-linejoin:miter;stroke-miterlimit:10;stroke-opacity:1" />
    </g>
    <g
       transform="translate(0.17836847,-22.624408)"
       id="g972"
       inkscape:label="Layer 1">
      <path
         style="fill:none;stroke:#000000;stroke-width:0.141;stroke-linecap:butt;stroke-linejoin:miter;stroke-miterlimit:10;stroke-dasharray:none;stroke-opacity:1"
         d="m 128.95425,99.786414 h -3.92051"
         id="path964" />
      <path
         style="fill:none;stroke:#000000;stroke-width:0.281165;stroke-linecap:butt;stroke-linejoin:miter;stroke-miterlimit:10;stroke-opacity:1"
         d="m 128.95425,94.186074 9.69864,5.60034 -9.69864,5.598966 z m 0,0"
         id="path966" />
      <path
         style="fill:none;stroke:#000000;stroke-width:0.140582;stroke-linecap:butt;stroke-linejoin:miter;stroke-miterlimit:10;stroke-opacity:1"
         d="m 140.37819,99.786414 h 2.19522"
         id="path968" />
      <path
         style="fill:#ffffff;fill-opacity:1;fill-rule:nonzero;stroke:#000000;stroke-width:0.281165;stroke-linecap:butt;stroke-linejoin:miter;stroke-miterlimit:10;stroke-opacity:1"
         d="m 140.37819,99.786414 c 0,-0.4768 -0.38585,-0.86265 -0.86265,-0.86265 -0.47542,0 -0.86265,0.38585 -0.86265,0.86265 0,0.475426 0.38723,0.861276 0.86265,0.861276 0.4768,0 0.86265,-0.38585 0.86265,-0.861276 z m 0,0"
         id="path970" />
    </g>
    <path
       id="path974"
       d="m 114.99987,77.094493 10.21224,0.06751"
       style="fill:none;stroke:#000000;stroke-width:0.141;stroke-linejoin:round;stroke-miterlimit:10;stroke-dasharray:none" />
    <path
       style="fill:#000000;fill-opacity:1;fill-rule:nonzero;stroke:#000000;stroke-width:0.281165;stroke-linecap:butt;stroke-linejoin:miter;stroke-miterlimit:10;stroke-opacity:1"
       d="m 149.98666,77.162694 c 0,-0.4768 -0.38585,-0.86265 -0.86265,-0.86265 -0.47542,0 -0.86265,0.38585 -0.86265,0.86265 0,0.475426 0.38723,0.861276 0.86265,0.861276 0.4768,0 0.86265,-0.38585 0.86265,-0.861276 z m 0,0"
       id="path918-6" />
    <path
       id="path1010"
       d="m 93.3757,50.26129 h -5.874215 v 9.282414 l 61.610125,9.678943 v 7.93936 h -6.35983"
       style="fill:none;stroke:#000000;stroke-width:0.141;stroke-linejoin:miter;stroke-miterlimit:10;stroke-dasharray:none" />
    <path
       id="path1012"
       d="m 149.11161,77.162007 h 8.41037"
       style="fill:none;stroke:#1a1a1a;stroke-width:0.141;stroke-linejoin:miter;stroke-miterlimit:10;stroke-dasharray:none" />
    <path
       id="path1022"
       d="M 93.393019,44.66095 H 80.894536 v 35.23371 h 12.498483"
       style="fill:none;stroke:#1a1a1a;stroke-width:0.141;stroke-linejoin:miter;stroke-miterlimit:10;stroke-dasharray:none" />
    <path
       id="path918-6-9"
       d="m 81.757185,62.345311 c 0,-0.4768 -0.38585,-0.86265 -0.86265,-0.86265 -0.47542,0 -0.86265,0.38585 -0.86265,0.86265 0,0.475426 0.38723,0.861276 0.86265,0.861276 0.4768,0 0.86265,-0.38585 0.86265,-0.861276 z m 0,0"
       style="fill:#000000;fill-opacity:1;fill-rule:nonzero;stroke:#000000;stroke-width:0.281165;stroke-linecap:butt;stroke-linejoin:miter;stroke-miterlimit:10;stroke-opacity:1" />
    <path
       id="path1039"
       d="m 72.476898,62.344624 h 8.445398"
       style="fill:none;stroke:#1a1a1a;stroke-width:0.141;stroke-linejoin:miter;stroke-miterlimit:10;stroke-dasharray:none" />
    <g
       transform="matrix(0.352778,0,0,0.352778,12.23357,16.004147)"
       id="id-295fa390-49ef-4585-ba9b-968d03c511a3"
       style="fill:#000000;fill-opacity:1">
      <g
         transform="translate(148.712,134.765)"
         id="g1249">
        <path
           id="id-01195fe6-7327-4131-9b30-3d670fccaf5e"
           d="m 0.5625,-3.40625 c 0,2.0625 1.609375,3.625 3.46875,3.625 1.625,0 2.59375,-1.390625 2.59375,-2.546875 C 6.625,-2.421875 6.625,-2.5 6.5,-2.5 6.390625,-2.5 6.390625,-2.4375 6.375,-2.328125 6.296875,-0.90625 5.234375,-0.09375 4.140625,-0.09375 c -0.609375,0 -2.5625,-0.328125 -2.5625,-3.3125 0,-2.96875 1.953125,-3.3125 2.5625,-3.3125 1.078125,0 1.96875,0.90625 2.171875,2.359375 C 6.328125,-4.21875 6.328125,-4.1875 6.46875,-4.1875 6.625,-4.1875 6.625,-4.21875 6.625,-4.421875 V -6.78125 c 0,-0.171875 0,-0.25 -0.109375,-0.25 -0.03125,0 -0.078125,0 -0.15625,0.125 l -0.5,0.734375 C 5.5,-6.53125 4.984375,-7.03125 4.03125,-7.03125 c -1.875,0 -3.46875,1.59375 -3.46875,3.625 z m 0,0"
           style="stroke:none" />
      </g>
      <g
         transform="translate(155.907,134.765)"
         id="g1252">
        <path
           id="id-77750646-8feb-4fac-a8d8-edcb12fce0de"
           d="m 1.71875,-3.984375 h 1.4375 v -0.3125 H 1.71875 V -6.125 h -0.25 c 0,0.8125 -0.296875,1.875 -1.28125,1.921875 v 0.21875 h 0.84375 v 2.75 c 0,1.21875 0.9375,1.34375 1.296875,1.34375 0.703125,0 0.984375,-0.703125 0.984375,-1.34375 v -0.5625 h -0.25 V -1.25 c 0,0.734375 -0.296875,1.109375 -0.671875,1.109375 -0.671875,0 -0.671875,-0.90625 -0.671875,-1.078125 z m 0,0"
           style="stroke:none" />
      </g>
      <g
         transform="translate(159.781,134.765)"
         id="g1255">
        <path
           id="id-1156fb10-85a4-4ca4-86be-61aad9e6956d"
           d="M 1.671875,-3.3125 V -4.40625 L 0.28125,-4.296875 v 0.3125 c 0.703125,0 0.78125,0.0625 0.78125,0.5625 V -0.75 c 0,0.4375 -0.109375,0.4375 -0.78125,0.4375 V 0 c 0.390625,-0.015625 0.859375,-0.03125 1.140625,-0.03125 0.390625,0 0.859375,0 1.265625,0.03125 V -0.3125 H 2.46875 c -0.734375,0 -0.75,-0.109375 -0.75,-0.46875 V -2.3125 c 0,-0.984375 0.421875,-1.875 1.171875,-1.875 0.0625,0 0.09375,0 0.109375,0.015625 -0.03125,0 -0.234375,0.125 -0.234375,0.390625 0,0.265625 0.21875,0.421875 0.4375,0.421875 0.171875,0 0.421875,-0.125 0.421875,-0.4375 0,-0.3125 -0.3125,-0.609375 -0.734375,-0.609375 -0.734375,0 -1.09375,0.671875 -1.21875,1.09375 z m 0,0"
           style="stroke:none" />
      </g>
      <g
         transform="translate(163.684,134.765)"
         id="g1258">
        <path
           id="id-6a55eb47-c345-41ba-b90e-cee2a36f513e"
           d="M 1.765625,-6.921875 0.328125,-6.8125 V -6.5 c 0.703125,0 0.78125,0.0625 0.78125,0.5625 V -0.75 c 0,0.4375 -0.109375,0.4375 -0.78125,0.4375 V 0 C 0.65625,-0.015625 1.1875,-0.03125 1.4375,-0.03125 c 0.25,0 0.734375,0.015625 1.109375,0.03125 v -0.3125 c -0.671875,0 -0.78125,0 -0.78125,-0.4375 z m 0,0"
           style="stroke:none" />
      </g>
    </g>
    <g
       transform="matrix(0.352778,0,0,0.352778,107.3339,26.604069)"
       id="id-57f5f3bb-7542-446c-bda4-98abced752eb"
       style="fill:#000000;fill-opacity:1">
      <g
         transform="translate(148.712,146.72)"
         id="g1262">
        <path
           id="id-e401633b-66dd-4a48-a719-907f2927b225"
           d="m 3.484375,-3.875 -1.28125,-0.296875 c -0.625,-0.15625 -1,-0.6875 -1,-1.265625 0,-0.703125 0.53125,-1.3125 1.3125,-1.3125 1.65625,0 1.875,1.640625 1.9375,2.078125 0.015625,0.0625 0.015625,0.125 0.125,0.125 0.125,0 0.125,-0.046875 0.125,-0.234375 v -2 c 0,-0.171875 0,-0.25 -0.109375,-0.25 -0.0625,0 -0.078125,0.015625 -0.140625,0.140625 l -0.359375,0.5625 C 3.796875,-6.625 3.390625,-7.03125 2.5,-7.03125 c -1.109375,0 -1.9375,0.875 -1.9375,1.9375 0,0.828125 0.53125,1.5625 1.296875,1.828125 0.109375,0.03125 0.625,0.15625 1.328125,0.328125 0.265625,0.0625 0.5625,0.140625 0.84375,0.5 0.203125,0.265625 0.3125,0.59375 0.3125,0.921875 0,0.703125 -0.5,1.421875 -1.34375,1.421875 -0.28125,0 -1.046875,-0.046875 -1.578125,-0.53125 C 0.84375,-1.171875 0.8125,-1.796875 0.8125,-2.15625 0.796875,-2.265625 0.71875,-2.265625 0.6875,-2.265625 c -0.125,0 -0.125,0.078125 -0.125,0.25 v 2 c 0,0.171875 0,0.234375 0.109375,0.234375 0.0625,0 0.078125,-0.015625 0.140625,-0.125 0,-0.015625 0.03125,-0.046875 0.359375,-0.578125 0.3125,0.34375 0.953125,0.703125 1.84375,0.703125 1.15625,0 1.953125,-0.96875 1.953125,-2.078125 0,-0.984375 -0.65625,-1.8125 -1.484375,-2.015625 z m 0,0"
           style="stroke:none" />
      </g>
      <g
         transform="translate(154.247,146.72)"
         id="g1265">
        <path
           id="id-d479ac0f-9a2d-488f-8b7f-5959868c5de7"
           d="m 3.3125,-0.75 c 0.046875,0.390625 0.3125,0.8125 0.78125,0.8125 0.21875,0 0.828125,-0.140625 0.828125,-0.953125 v -0.5625 h -0.25 v 0.5625 c 0,0.578125 -0.25,0.640625 -0.359375,0.640625 -0.328125,0 -0.375,-0.453125 -0.375,-0.5 v -1.984375 c 0,-0.421875 0,-0.8125 -0.359375,-1.1875 C 3.1875,-4.3125 2.6875,-4.46875 2.21875,-4.46875 c -0.828125,0 -1.515625,0.46875 -1.515625,1.125 0,0.296875 0.203125,0.46875 0.46875,0.46875 0.28125,0 0.453125,-0.203125 0.453125,-0.453125 0,-0.125 -0.046875,-0.453125 -0.515625,-0.453125 C 1.390625,-4.140625 1.875,-4.25 2.1875,-4.25 c 0.5,0 1.0625,0.390625 1.0625,1.28125 v 0.359375 c -0.515625,0.03125 -1.203125,0.0625 -1.828125,0.359375 -0.75,0.34375 -1,0.859375 -1,1.296875 0,0.8125 0.96875,1.0625 1.59375,1.0625 0.65625,0 1.109375,-0.40625 1.296875,-0.859375 z M 3.25,-2.390625 v 1 c 0,0.9375 -0.71875,1.28125 -1.171875,1.28125 -0.484375,0 -0.890625,-0.34375 -0.890625,-0.84375 0,-0.546875 0.421875,-1.375 2.0625,-1.4375 z m 0,0"
           style="stroke:none" />
      </g>
      <g
         transform="translate(159.229,146.72)"
         id="g1268">
        <path
           id="id-fa607d69-e60b-4644-bf5e-efbf7fcf5230"
           d="M 1.765625,-6.921875 0.328125,-6.8125 V -6.5 c 0.703125,0 0.78125,0.0625 0.78125,0.5625 V -0.75 c 0,0.4375 -0.109375,0.4375 -0.78125,0.4375 V 0 C 0.65625,-0.015625 1.1875,-0.03125 1.4375,-0.03125 c 0.25,0 0.734375,0.015625 1.109375,0.03125 v -0.3125 c -0.671875,0 -0.78125,0 -0.78125,-0.4375 z m 0,0"
           style="stroke:none" />
      </g>
      <g
         transform="translate(161.996,146.72)"
         id="g1271">
        <path
           id="id-1cbd4af8-df49-4e8b-a4bd-85a762946c3c"
           d="M 1.765625,-4.40625 0.375,-4.296875 v 0.3125 c 0.640625,0 0.734375,0.0625 0.734375,0.546875 V -0.75 c 0,0.4375 -0.109375,0.4375 -0.78125,0.4375 V 0 C 0.640625,-0.015625 1.1875,-0.03125 1.421875,-0.03125 1.78125,-0.03125 2.125,-0.015625 2.46875,0 v -0.3125 c -0.671875,0 -0.703125,-0.046875 -0.703125,-0.4375 z m 0.03125,-1.734375 c 0,-0.3125 -0.234375,-0.53125 -0.515625,-0.53125 -0.3125,0 -0.53125,0.265625 -0.53125,0.53125 0,0.265625 0.21875,0.53125 0.53125,0.53125 0.28125,0 0.515625,-0.21875 0.515625,-0.53125 z m 0,0"
           style="stroke:none" />
      </g>
      <g
         transform="translate(164.764,146.72)"
         id="g1274">
        <path
           id="id-3211c3fa-88c2-46ea-8d52-3dcbce486965"
           d="m 3.78125,-0.546875 v 0.65625 L 5.25,0 v -0.3125 c -0.6875,0 -0.78125,-0.0625 -0.78125,-0.5625 V -6.921875 L 3.046875,-6.8125 V -6.5 c 0.6875,0 0.765625,0.0625 0.765625,0.5625 v 2.15625 c -0.28125,-0.359375 -0.71875,-0.625 -1.25,-0.625 -1.171875,0 -2.21875,0.984375 -2.21875,2.265625 0,1.265625 0.96875,2.25 2.109375,2.25 0.640625,0 1.078125,-0.34375 1.328125,-0.65625 z m 0,-2.671875 v 2.046875 c 0,0.171875 0,0.1875 -0.109375,0.359375 C 3.375,-0.328125 2.9375,-0.109375 2.5,-0.109375 2.046875,-0.109375 1.6875,-0.375 1.453125,-0.75 1.203125,-1.15625 1.171875,-1.71875 1.171875,-2.140625 1.171875,-2.5 1.1875,-3.09375 1.46875,-3.546875 1.6875,-3.859375 2.0625,-4.1875 2.609375,-4.1875 c 0.34375,0 0.765625,0.15625 1.0625,0.59375 0.109375,0.171875 0.109375,0.1875 0.109375,0.375 z m 0,0"
           style="stroke:none" />
      </g>
      <g
         transform="translate(170.299,146.72)"
         id="g1277">
        <path
           id="id-214730ad-a971-4471-90e9-9fe4ee005b30"
           d="m 3.3125,-0.75 c 0.046875,0.390625 0.3125,0.8125 0.78125,0.8125 0.21875,0 0.828125,-0.140625 0.828125,-0.953125 v -0.5625 h -0.25 v 0.5625 c 0,0.578125 -0.25,0.640625 -0.359375,0.640625 -0.328125,0 -0.375,-0.453125 -0.375,-0.5 v -1.984375 c 0,-0.421875 0,-0.8125 -0.359375,-1.1875 C 3.1875,-4.3125 2.6875,-4.46875 2.21875,-4.46875 c -0.828125,0 -1.515625,0.46875 -1.515625,1.125 0,0.296875 0.203125,0.46875 0.46875,0.46875 0.28125,0 0.453125,-0.203125 0.453125,-0.453125 0,-0.125 -0.046875,-0.453125 -0.515625,-0.453125 C 1.390625,-4.140625 1.875,-4.25 2.1875,-4.25 c 0.5,0 1.0625,0.390625 1.0625,1.28125 v 0.359375 c -0.515625,0.03125 -1.203125,0.0625 -1.828125,0.359375 -0.75,0.34375 -1,0.859375 -1,1.296875 0,0.8125 0.96875,1.0625 1.59375,1.0625 0.65625,0 1.109375,-0.40625 1.296875,-0.859375 z M 3.25,-2.390625 v 1 c 0,0.9375 -0.71875,1.28125 -1.171875,1.28125 -0.484375,0 -0.890625,-0.34375 -0.890625,-0.84375 0,-0.546875 0.421875,-1.375 2.0625,-1.4375 z m 0,0"
           style="stroke:none" />
      </g>
    </g>
  </g>
</svg>
